# Blender v2.77 (sub 0) OBJ File: ''
# www.blender.org
mtllib frog-arm.mtl
o BluePoisonDartFrog_Untitled
v -3.529482 0.496608 3.918851
v -3.065222 0.164504 3.780422
v -2.824028 0.179986 3.511335
v -3.897020 0.466972 3.795457
v -3.851028 0.119556 3.698409
v -2.804661 0.434104 3.574859
v -2.951425 0.693239 3.431196
v -3.950978 0.117199 3.345389
v -4.025487 0.742373 3.536555
v -2.918759 0.171041 3.148536
v -3.483399 0.116092 3.819046
v -3.045823 0.406858 3.842975
v -2.865509 0.169256 3.924724
v -2.676490 0.171277 3.773556
v -2.660505 0.420214 3.829440
v -2.849404 0.372004 3.976796
v -2.599614 0.059596 4.199762
v -2.372004 0.064971 4.017966
v -2.352798 0.381832 4.086672
v -2.580409 0.376594 4.268477
v -2.461917 0.079030 4.289413
v -2.318182 0.084374 4.174768
v -2.306053 0.284532 4.218162
v -2.449790 0.279158 4.332805
v -3.366955 0.420971 4.330010
v -3.115412 0.129287 4.214726
v -3.345344 0.144633 4.254262
v -3.102154 0.378299 4.264822
v -3.290965 0.412368 5.073987
v -2.928892 0.085973 4.915676
v -3.260070 0.104760 4.972351
v -2.909659 0.391748 4.983468
v -3.176199 0.229238 5.246100
v -2.941546 0.059274 5.146894
v -3.156234 0.055291 5.182306
v -2.929073 0.256863 5.190793
v -2.972652 0.408957 4.788421
v -2.988339 0.161026 4.733260
v -3.283540 0.414913 4.861335
v -3.258264 0.131067 4.775734
v -4.755069 0.445926 4.229296
v -4.731541 0.186299 4.160954
v -4.833748 0.140124 3.984792
v -4.869158 0.462644 4.050401
v -4.053337 0.402268 4.988230
v -4.278387 0.431367 4.877243
v -4.248311 0.177523 4.806395
v -4.024561 0.145135 4.916606
v -3.833654 0.080182 4.367239
v -4.072627 0.124263 4.249368
v -4.108137 0.396501 4.324574
v -3.869142 0.352487 4.442463
v -5.135026 0.434362 4.243464
v -5.089612 0.081058 4.164336
v -4.958517 0.126294 4.389210
v -4.988736 0.417204 4.473353
v -4.426647 0.432403 3.770141
v -4.388986 0.095243 3.700891
v -4.280403 0.137983 3.887580
v -4.305495 0.410915 3.959925
v -4.183361 0.429620 5.526355
v -4.513556 0.455052 5.401153
v -4.479652 0.066055 5.294558
v -4.152390 0.033114 5.418062
v -4.250607 0.036723 5.536507
v -4.489407 0.058502 5.446206
v -4.513407 0.351658 5.524978
v -4.273007 0.334211 5.616226
v -4.121481 0.134962 5.256825
v -4.386765 0.164647 5.156934
v -4.414336 0.456683 5.241284
v -4.147253 0.432055 5.342252
v -5.254607 0.459817 4.286976
v -5.198974 0.007842 4.188516
v -5.038495 0.050713 4.462698
v -5.075565 0.439885 4.568421
v -5.407363 0.381261 4.429965
v -5.368820 -0.005555 4.355878
v -5.258143 0.004729 4.543302
v -5.283837 0.326738 4.620618
v -3.182022 0.731766 2.621395
v -3.258136 0.894693 3.294602
v -3.821199 0.840741 3.346938
v -3.796037 0.671401 2.742219
v -3.947427 1.714246 2.730813
v -3.902855 1.174503 2.239516
v -3.226176 1.198646 2.152623
v -3.304958 1.684236 2.701209
v -2.674294 0.135558 4.091171
v -2.491407 0.138823 3.945012
v -2.658794 0.364164 4.144230
v -2.475959 0.387296 3.999712
v -3.961299 2.634103 1.848962
v -3.809251 2.003807 1.510891
v -3.194532 1.906701 1.791462
v -3.416333 2.501720 2.165238
v -3.107257 3.318055 1.684668
v -2.734414 2.670045 1.381617
v -3.586303 2.705521 0.939611
v -3.853173 3.383094 1.198696
v -2.561283 4.365201 0.869902
v -2.102391 3.717191 0.518831
v -3.219328 3.752667 0.190049
v -3.545245 4.430240 0.483375
vt 0.7088 0.1022
vt 0.6984 0.0781
vt 0.7124 0.0835
vt 0.7184 0.0972
vt 0.7134 0.0599
vt 0.7001 0.0561
vt 0.7070 0.0467
vt 0.7172 0.0498
vt 0.6441 0.1076
vt 0.6336 0.0798
vt 0.6855 0.0472
vt 0.3455 0.7411
vt 0.3501 0.7621
vt 0.3318 0.7684
vt 0.3346 0.7416
vt 0.3443 0.8064
vt 0.3304 0.7827
vt 0.3646 0.7741
vt 0.3789 0.7934
vt 0.7056 0.0313
vt 0.3624 0.8118
vt 0.3784 0.8109
vt 0.6731 0.1005
vt 0.6640 0.1418
vt 0.6860 0.1237
vt 0.6751 0.1464
vt 0.7231 0.0606
vt 0.7273 0.0617
vt 0.7271 0.0667
vt 0.7232 0.0680
vt 0.3904 0.7951
vt 0.3919 0.8068
vt 0.7132 0.0710
vt 0.7185 0.0780
vt 0.7295 0.0630
vt 0.7297 0.0655
vt 0.7316 0.0743
vt 0.7270 0.0751
vt 0.7266 0.0523
vt 0.4027 0.7957
vt 0.4096 0.7940
vt 0.4114 0.8080
vt 0.4042 0.8069
vt 0.7358 0.0602
vt 0.7349 0.0686
vt 0.7321 0.0538
vt 0.4179 0.7959
vt 0.4190 0.8047
vt 0.7280 0.1148
vt 0.7352 0.1086
vt 0.7031 0.1111
vt 0.7019 0.1233
vt 0.3846 0.7658
vt 0.3916 0.7772
vt 0.7354 0.1232
vt 0.7326 0.1192
vt 0.7409 0.1133
vt 0.7427 0.1234
vt 0.7221 0.1228
vt 0.7277 0.1265
vt 0.7268 0.1372
vt 0.7193 0.1337
vt 0.4055 0.7503
vt 0.4125 0.7427
vt 0.4226 0.7587
vt 0.4138 0.7633
vt 0.7361 0.1321
vt 0.7335 0.1265
vt 0.4254 0.7392
vt 0.4310 0.7502
vt 0.6563 0.1671
vt 0.6526 0.1425
vt 0.6667 0.1668
vt 0.3775 0.7459
vt 0.3661 0.7394
vt 0.6775 0.1697
vt 0.6468 0.1720
vt 0.6428 0.1492
vt 0.3941 0.7234
vt 0.3835 0.7174
vt 0.4056 0.7098
vt 0.3942 0.7019
vt 0.6317 0.1286
vt 0.6663 0.1856
vt 0.6677 0.1799
vt 0.6781 0.1854
vt 0.6765 0.1929
vt 0.6583 0.1817
vt 0.6487 0.1873
vt 0.6651 0.1878
vt 0.6702 0.1963
vt 0.6604 0.1861
vt 0.6520 0.1944
vt 0.4120 0.7033
vt 0.3979 0.6936
vt 0.6620 0.1885
vt 0.6582 0.1963
vt 0.4144 0.6960
vt 0.4042 0.6889
vt 0.6055 0.1005
vt 0.5778 0.1123
vt 0.5672 0.0977
vt 0.5923 0.0868
vt 0.5998 0.0594
vt 0.6097 0.1119
vt 0.6093 0.1273
vt 0.5669 0.1284
vt 0.5817 0.1229
vt 0.5838 0.1372
vt 0.5666 0.1417
vt 0.3435 0.7157
vt 0.3332 0.7162
vt 0.3481 0.6935
vt 0.3468 0.6996
vt 0.3336 0.7002
vt 0.3319 0.6942
vt 0.5646 0.1188
vt 0.5519 0.1071
vt 0.3446 0.6822
vt 0.3334 0.6835
vt 0.5629 0.1282
vt 0.5603 0.1435
vt 0.5608 0.1216
vt 0.5462 0.1098
vt 0.5579 0.1239
vt 0.5579 0.1270
vt 0.5497 0.1355
vt 0.5434 0.1232
vt 0.6654 0.0152
vt 0.6990 0.0133
vt 0.6359 0.0296
vt 0.2150 0.7995
vt 0.1788 0.8018
vt 0.1751 0.7615
vt 0.2127 0.7605
vt 0.6068 0.0448
vt 0.2454 0.7963
vt 0.2473 0.7584
vt 0.2803 0.7596
vt 0.2760 0.7983
vt 0.3092 0.7632
vt 0.3066 0.8014
vt 0.2150 0.7995
vt 0.1788 0.8018
vt 0.2760 0.7983
vt 0.2454 0.7963
vt 0.3066 0.8014
vt 0.2150 0.7995
vt 0.1788 0.8018
vt 0.2760 0.7983
vt 0.2454 0.7963
vt 0.3066 0.8014
vt 0.2454 0.7963
vt 0.2150 0.7995
vt 0.2760 0.7983
vt 0.3066 0.8014
vt 0.1788 0.8018
vn 0.6043 -0.7945 -0.0605
vn 0.1797 -0.9578 0.2242
vn 0.3255 0.7331 0.5971
vn 0.7534 0.6563 -0.0407
vn 0.5331 -0.6966 -0.4802
vn 0.6802 -0.6679 -0.3021
vn 0.8233 0.5114 -0.2463
vn 0.4990 0.8241 -0.2682
vn -0.0855 -0.9889 0.1218
vn -0.4388 -0.7294 -0.5248
vn 0.6315 -0.6288 -0.4537
vn 0.2718 0.4986 0.8231
vn -0.2676 0.6612 0.7009
vn -0.5556 0.8290 -0.0641
vn -0.5427 0.6809 -0.4917
vn 0.4339 0.7833 0.4452
vn -0.6652 0.6668 0.3360
vn 0.0131 0.7852 0.6191
vn 0.7291 0.6647 0.1633
vn 0.0268 -0.9890 0.1457
vn 0.5156 -0.8070 0.2879
vn 0.6841 0.6490 0.3329
vn 0.3314 -0.5505 -0.7663
vn 0.5034 -0.6591 -0.5587
vn -0.5584 -0.7576 0.3381
vn -0.6604 -0.6994 0.2734
vn -0.4522 0.5596 0.6945
vn -0.4303 -0.7635 0.4815
vn 0.7900 -0.5839 0.1871
vn 0.0534 -0.6435 0.7636
vn -0.4002 0.6546 0.6414
vn -0.5778 0.6641 0.4745
vn 0.4103 0.7997 -0.4382
vn 0.6566 0.7134 -0.2447
vn 0.8794 0.2980 0.3712
vn 0.1438 0.2356 0.9612
vn 0.7220 -0.6307 -0.2845
vn 0.6769 0.7171 -0.1660
vn -0.6376 -0.7570 0.1428
vn -0.6738 0.7082 0.2106
vn 0.5929 -0.6910 0.4135
vn 0.6611 -0.6996 -0.2712
vn 0.7492 0.6529 0.1113
vn 0.6699 0.2680 0.6924
vn -0.6228 -0.7823 0.0118
vn -0.7184 -0.6957 -0.0024
vn -0.6598 0.6411 0.3920
vn -0.7047 0.7078 0.0496
vn -0.3766 0.1016 0.9208
vn -0.3540 -0.7687 0.5328
vn -0.7233 -0.6545 -0.2201
vn -0.7026 -0.6678 -0.2459
vn 0.6407 -0.7338 0.2260
vn -0.6666 0.7170 -0.2041
vn 0.7235 0.6706 0.1638
vn -0.6103 0.7447 -0.2700
vn 0.7034 0.6964 0.1425
vn -0.5449 0.7787 -0.3112
vn 0.6724 -0.7343 0.0936
vn 0.7808 -0.6240 -0.0316
vn 0.5731 0.6344 0.5188
vn -0.6395 -0.5625 -0.5241
vn 0.1978 -0.7002 0.6860
vn 0.1470 0.1888 0.9709
vn -0.6339 -0.6503 -0.4187
vn -0.7166 0.6969 0.0287
vn -0.6796 -0.6517 0.3367
vn -0.7450 0.2263 0.6275
vn -0.4300 -0.7522 -0.4992
vn -0.3686 -0.7049 -0.6060
vn -0.3646 0.7736 -0.5182
vn 0.2761 -0.7193 0.6375
vn 0.7223 -0.5662 0.3971
vn 0.4705 -0.6775 0.5654
vn 0.4594 0.6753 0.5770
vn 0.6136 0.5948 0.5193
vn 0.3121 0.6373 0.7045
vn -0.2313 0.7772 -0.5852
vn -0.4078 0.7792 -0.4759
vn -0.0218 -0.6257 -0.7798
vn -0.3627 0.2517 0.8972
vn -0.8680 0.4945 0.0446
vn 0.5773 -0.6840 0.4460
vn -0.1587 -0.6762 -0.7194
vn -0.7260 -0.6683 -0.1621
vn -0.1866 -0.7208 0.6675
vn 0.6923 -0.3760 -0.6159
vn -0.6789 -0.5321 -0.5059
vn 0.7211 -0.4292 -0.5438
vn 0.6550 0.4757 0.5871
vn -0.6899 -0.5077 -0.5160
vn -0.7460 0.3735 0.5513
vn 0.8347 -0.4196 -0.3566
vn 0.3593 0.4673 0.8078
vn -0.8818 0.3581 0.3068
vn -0.5488 -0.4788 -0.6852
vn 0.8781 -0.4785 -0.0015
vn 0.2394 0.4476 0.8616
vn -0.9207 0.3675 0.1312
vn -0.4002 -0.5027 -0.7662
vn -0.4039 -0.4701 -0.7848
vn 0.9097 -0.4055 0.0891
vn -0.8388 0.4856 0.2460
vn 0.2557 0.4721 0.8436
usemtl Material.003
s 1
f 26/1/1 2/2/2 12/3/3
f 12/3/3 28/4/4 26/1/1
f 14/5/5 3/6/6 6/7/7
f 6/7/7 15/8/8 14/5/5
f 5/9/9 8/10/10 10/11/11
f 10/11/11 3/6/6 5/9/9
f 60/12/12 4/13/13 9/14/14
f 9/14/14 57/15/15 60/12/12
f 82/16/16 83/17/17 1/18/18
f 1/18/18 12/19/3 82/16/16
f 3/6/6 10/11/11 7/20/19
f 7/20/19 6/7/7 3/6/6
f 7/21/19 82/16/16 12/19/3
f 12/19/3 6/22/7 7/21/19
f 11/23/20 5/9/9 3/6/6
f 3/6/6 2/2/2 11/23/20
f 49/24/21 11/23/20 1/25/18
f 1/25/18 52/26/22 49/24/21
f 90/27/23 18/28/24 17/29/25
f 17/29/25 89/30/26 90/27/23
f 12/19/3 16/31/27 15/32/8
f 15/32/8 6/22/7 12/19/3
f 2/2/2 13/33/28 16/34/27
f 16/34/27 12/3/3 2/2/2
f 3/6/6 14/5/5 13/33/28
f 13/33/28 2/2/2 3/6/6
f 18/28/24 22/35/29 21/36/30
f 21/36/30 17/29/25 18/28/24
f 89/30/26 17/29/25 20/37/31
f 20/37/31 91/38/32 89/30/26
f 90/27/23 14/5/5 15/8/8
f 15/8/8 92/39/33 90/27/23
f 91/40/32 20/41/31 19/42/34
f 19/42/34 92/43/33 91/40/32
f 21/36/30 22/35/29 23/44/35
f 23/44/35 24/45/36 21/36/30
f 17/29/25 21/36/30 24/45/36
f 24/45/36 20/37/31 17/29/25
f 22/35/29 18/28/24 19/46/34
f 19/46/34 23/44/35 22/35/29
f 20/41/31 24/47/36 23/48/35
f 23/48/35 19/42/34 20/41/31
f 38/49/37 26/1/1 28/4/4
f 28/4/4 37/50/38 38/49/37
f 11/23/20 27/51/39 25/52/40
f 25/52/40 1/25/18 11/23/20
f 1/18/18 25/53/40 28/54/4
f 28/54/4 12/19/3 1/18/18
f 27/51/39 11/23/20 2/2/2
f 2/2/2 26/1/1 27/51/39
f 34/55/41 30/56/42 32/57/43
f 32/57/43 36/58/44 34/55/41
f 40/59/45 31/60/46 29/61/47
f 29/61/47 39/62/48 40/59/45
f 39/63/48 29/64/47 32/65/43
f 32/65/43 37/66/38 39/63/48
f 40/59/45 27/51/39 26/1/1
f 26/1/1 38/49/37 40/59/45
f 34/55/41 36/58/44 33/67/49
f 33/67/49 35/68/50 34/55/41
f 31/60/46 35/68/50 33/67/49
f 33/67/49 29/61/47 31/60/46
f 29/64/47 33/69/49 36/70/44
f 36/70/44 32/65/43 29/64/47
f 35/68/50 31/60/46 30/56/42
f 30/56/42 34/55/41 35/68/50
f 30/56/42 38/49/37 37/50/38
f 37/50/38 32/57/43 30/56/42
f 27/51/39 40/59/45 39/62/48
f 39/62/48 25/52/40 27/51/39
f 25/53/40 39/63/48 37/66/38
f 37/66/38 28/54/4 25/53/40
f 31/60/46 40/59/45 38/49/37
f 38/49/37 30/56/42 31/60/46
f 47/71/51 50/72/52 49/24/21
f 49/24/21 48/73/53 47/71/51
f 52/74/22 1/18/18 4/13/13
f 4/13/13 51/75/54 52/74/22
f 48/73/53 49/24/21 52/26/22
f 52/26/22 45/76/55 48/73/53
f 50/72/52 47/71/51 46/77/56
f 46/77/56 51/78/54 50/72/52
f 45/79/55 52/74/22 51/75/54
f 51/75/54 46/80/56 45/79/55
f 50/72/52 5/9/9 11/23/20
f 11/23/20 49/24/21 50/72/52
f 72/81/57 45/79/55 46/80/56
f 46/80/56 71/82/58 72/81/57
f 5/9/9 50/72/52 51/78/54
f 51/78/54 4/83/13 5/9/9
f 64/84/59 69/85/60 72/86/57
f 72/86/57 61/87/61 64/84/59
f 47/71/51 70/88/62 71/89/58
f 71/89/58 46/77/56 47/71/51
f 70/88/62 47/71/51 48/73/53
f 48/73/53 69/85/60 70/88/62
f 69/85/60 48/73/53 45/76/55
f 45/76/55 72/86/57 69/85/60
f 65/90/63 64/84/59 61/87/61
f 61/87/61 68/91/64 65/90/63
f 70/88/62 63/92/65 62/93/66
f 62/93/66 71/89/58 70/88/62
f 61/94/61 72/81/57 71/82/58
f 71/82/58 62/95/66 61/94/61
f 63/92/65 70/88/62 69/85/60
f 69/85/60 64/84/59 63/92/65
f 66/96/67 65/90/63 68/91/64
f 68/91/64 67/97/68 66/96/67
f 68/98/64 61/94/61 62/95/66
f 62/95/66 67/99/68 68/98/64
f 66/96/67 63/92/65 64/84/59
f 64/84/59 65/90/63 66/96/67
f 63/92/65 66/96/67 67/97/68
f 67/97/68 62/93/66 63/92/65
f 58/100/69 43/101/70 44/102/71
f 44/102/71 57/103/15 58/100/69
f 8/10/10 58/100/69 57/103/15
f 57/103/15 9/104/14 8/10/10
f 5/9/9 59/105/72 58/100/69
f 58/100/69 8/10/10 5/9/9
f 59/105/72 5/9/9 4/83/13
f 4/83/13 60/106/12 59/105/72
f 55/107/73 42/108/74 41/109/75
f 41/109/75 56/110/76 55/107/73
f 59/105/72 42/108/74 43/101/70
f 43/101/70 58/100/69 59/105/72
f 41/111/75 60/12/12 57/15/15
f 57/15/15 44/112/71 41/111/75
f 42/108/74 59/105/72 60/106/12
f 60/106/12 41/109/75 42/108/74
f 76/113/77 56/114/76 53/115/78
f 53/115/78 73/116/79 76/113/77
f 43/101/70 54/117/80 53/118/78
f 53/118/78 44/102/71 43/101/70
f 42/108/74 55/107/73 54/117/80
f 54/117/80 43/101/70 42/108/74
f 56/114/76 41/111/75 44/112/71
f 44/112/71 53/115/78 56/114/76
f 80/119/81 76/113/77 73/116/79
f 73/116/79 77/120/82 80/119/81
f 75/121/83 55/107/73 56/110/76
f 56/110/76 76/122/77 75/121/83
f 54/117/80 74/123/84 73/124/79
f 73/124/79 53/118/78 54/117/80
f 55/107/73 75/121/83 74/123/84
f 74/123/84 54/117/80 55/107/73
f 78/125/85 79/126/86 80/127/81
f 80/127/81 77/128/82 78/125/85
f 79/126/86 75/121/83 76/122/77
f 76/122/77 80/127/81 79/126/86
f 74/123/84 78/125/85 77/128/82
f 77/128/82 73/124/79 74/123/84
f 75/121/83 79/126/86 78/125/85
f 78/125/85 74/123/84 75/121/83
f 81/129/87 82/130/16 7/20/19
f 7/20/19 10/11/11 81/129/87
f 84/131/88 81/129/87 10/11/11
f 10/11/11 8/10/10 84/131/88
f 87/132/89 88/133/90 82/134/16
f 82/134/16 81/135/87 87/132/89
f 9/14/14 4/13/13 1/18/18
f 1/18/18 83/17/17 9/14/14
f 8/10/10 9/104/14 83/136/17
f 83/136/17 84/131/88 8/10/10
f 86/137/91 87/132/89 81/135/87
f 81/135/87 84/138/88 86/137/91
f 84/138/88 83/139/17 85/140/92
f 85/140/92 86/137/91 84/138/88
f 83/139/17 82/141/16 88/142/90
f 88/142/90 85/140/92 83/139/17
f 16/31/27 91/40/32 92/43/33
f 92/43/33 15/32/8 16/31/27
f 18/28/24 90/27/23 92/39/33
f 92/39/33 19/46/34 18/28/24
f 13/33/28 89/30/26 91/38/32
f 91/38/32 16/34/27 13/33/28
f 14/5/5 90/27/23 89/30/26
f 89/30/26 13/33/28 14/5/5
f 88/133/90 87/132/89 95/143/93 96/144/94
f 86/137/91 85/140/92 93/145/95 94/146/96
f 87/132/89 86/137/91 94/146/96 95/143/93
f 85/140/92 88/142/90 96/147/94 93/145/95
f 96/144/94 95/143/93 98/148/97 97/149/98
f 94/146/96 93/145/95 100/150/99 99/151/100
f 93/145/95 96/147/94 97/152/98 100/150/99
f 95/143/93 94/146/96 99/151/100 98/148/97
f 98/148/97 99/151/100 103/153/101 102/154/102
f 99/151/100 100/150/99 104/155/103 103/153/101
f 100/150/99 97/152/98 101/156/104 104/155/103
f 97/149/98 98/148/97 102/154/102 101/157/104
