g Exported Mesh Combined Mesh 
v 0.5 0.99 0.5
v -0.5 1.99 0.5
v -0.5 0.99 0.5
v 0.5 1.99 0.5
v 0.5 0.9900001 -0.5000001
v -0.5 0.9899999 0.5000001
v -0.5 0.9900001 -0.5000001
v 0.5 0.9899999 0.5000001
v -0.5000001 0.9900001 -0.5000001
v -0.4999999 1.99 0.5000001
v -0.4999999 1.99 -0.5
v -0.5000001 0.9899998 0.5
v 0.4999999 0.9900001 0.5000001
v 0.5000001 1.99 -0.5000001
v 0.5000001 1.99 0.5
v 0.4999999 0.9899998 -0.5
v 0.5 1.99 0.5000001
v -0.5 1.99 -0.5000001
v -0.5 1.99 0.5000001
v 0.5 1.99 -0.5000001

vn 0 0 -1
vn 0 0 -1
vn 0 0 -1
vn 0 0 -1
vn 0 1 1.192093E-07
vn 0 1 1.192093E-07
vn 0 1 1.192093E-07
vn 0 1 1.192093E-07
vn 1 -1.192093E-07 -2.84217E-14
vn 1 -1.192093E-07 -2.84217E-14
vn 1 -1.192093E-07 -2.84217E-14
vn 1 -1.192093E-07 -2.84217E-14
vn -1 1.192093E-07 -2.84217E-14
vn -1 1.192093E-07 -2.84217E-14
vn -1 1.192093E-07 -2.84217E-14
vn -1 1.192093E-07 -2.84217E-14
vn 0 -1 1.192093E-07
vn 0 -1 1.192093E-07
vn 0 -1 1.192093E-07
vn 0 -1 1.192093E-07

vt 0 0
vt 0.5 1
vt 0.5 0
vt 0 1
vt 0.5 0
vt 1 1
vt 1 0
vt 0.5 1
vt 0.5 0
vt 1 1
vt 1 0
vt 0.5 1
vt 0.5 0
vt 1 1
vt 1 0
vt 0.5 1
vt 0.5 0
vt 1 1
vt 1 0
vt 0.5 1

vt1 0 0
vt1 0 0
vt1 0 0
vt1 0 0
vt1 0 0
vt1 0 0
vt1 0 0
vt1 0 0
vt1 0 0
vt1 0 0
vt1 0 0
vt1 0 0
vt1 0 0
vt1 0 0
vt1 0 0
vt1 0 0
vt1 0 0
vt1 0 0
vt1 0 0
vt1 0 0

vt2 0 0
vt2 0 0
vt2 0 0
vt2 0 0
vt2 0 0
vt2 0 0
vt2 0 0
vt2 0 0
vt2 0 0
vt2 0 0
vt2 0 0
vt2 0 0
vt2 0 0
vt2 0 0
vt2 0 0
vt2 0 0
vt2 0 0
vt2 0 0
vt2 0 0
vt2 0 0

vc 1 1 1 1
vc 1 1 1 1
vc 1 1 1 1
vc 1 1 1 1
vc 1 1 1 1
vc 1 1 1 1
vc 1 1 1 1
vc 1 1 1 1
vc 1 1 1 1
vc 1 1 1 1
vc 1 1 1 1
vc 1 1 1 1
vc 1 1 1 1
vc 1 1 1 1
vc 1 1 1 1
vc 1 1 1 1
vc 1 1 1 1
vc 1 1 1 1
vc 1 1 1 1
vc 1 1 1 1
f 1/1/1 3/3/3 2/2/2
f 2/2/2 4/4/4 1/1/1
f 5/5/5 7/7/7 6/6/6
f 6/6/6 8/8/8 5/5/5
f 9/9/9 11/11/11 10/10/10
f 10/10/10 12/12/12 9/9/9
f 13/13/13 15/15/15 14/14/14
f 14/14/14 16/16/16 13/13/13
f 17/17/17 19/19/19 18/18/18
f 18/18/18 20/20/20 17/17/17

